<?xml version="1.0" standalone="no"?>
<!DOCTYPE svg PUBLIC "-//W3C//DTD SVG 20010904//EN"
 "http://www.w3.org/TR/2001/REC-SVG-20010904/DTD/svg10.dtd">
<svg version="1.0" xmlns="http://www.w3.org/2000/svg"
 width="200.000000pt" height="200.000000pt" viewBox="0 0 200.000000 200.000000"
 preserveAspectRatio="xMidYMid meet">

<g transform="translate(0.000000,200.000000) scale(0.100000,-0.100000)"
fill="#000000" stroke="none">
<path d="M476 1808 c-9 -12 -16 -40 -16 -60 0 -32 -4 -40 -24 -48 -32 -12 -55
-48 -63 -96 -3 -22 -9 -46 -14 -55 -4 -8 -81 -46 -171 -84 -180 -75 -188 -80
-188 -105 0 -29 19 -28 97 4 40 16 74 28 77 25 2 -2 6 -15 8 -27 3 -21 -6 -28
-87 -61 -70 -29 -91 -42 -93 -59 -5 -36 19 -35 108 3 64 28 85 33 92 23 20
-32 6 -44 -84 -82 -104 -43 -124 -57 -115 -80 9 -23 24 -20 128 23 l94 39 7
-26 c4 -14 6 -27 5 -28 -1 -2 -54 -25 -117 -52 -91 -39 -116 -53 -118 -70 -2
-12 3 -24 10 -27 7 -3 107 35 223 85 135 58 222 90 245 90 40 0 60 -17 100
-84 29 -48 92 -80 136 -67 17 5 78 44 137 87 79 58 107 85 107 101 0 12 -4 24
-9 27 -5 4 -58 -30 -117 -74 -90 -67 -114 -80 -146 -80 -31 0 -42 6 -65 37
-85 110 -120 131 -188 107 -45 -15 -42 -16 -49 16 -6 24 1 28 226 122 207 87
234 96 248 83 26 -24 66 -18 90 13 42 52 9 152 -51 152 -23 0 -55 -34 -64 -68
-12 -50 -49 -57 -52 -10 -3 38 -38 78 -69 78 -36 0 -66 -47 -62 -95 3 -22 6
-46 9 -54 3 -10 -39 -32 -141 -76 -80 -34 -148 -61 -151 -59 -4 2 -9 15 -11
28 -5 23 1 28 61 52 36 15 81 26 100 25 40 -2 67 19 76 60 23 103 -83 165
-121 72 -9 -20 -13 -45 -11 -55 4 -15 -6 -24 -51 -44 -89 -39 -112 -12 -43 54
30 29 40 47 45 84 12 84 -17 79 470 76 491 -3 472 0 521 -90 48 -89 30 -224
-39 -288 -21 -19 -40 -25 -89 -28 -58 -4 -66 -2 -97 24 -47 40 -118 41 -155 3
-41 -40 -16 -78 29 -44 30 23 66 18 115 -15 83 -57 193 -35 256 50 87 117 62
334 -46 408 -36 25 -38 30 -39 79 0 63 -17 83 -69 83 -47 0 -62 -16 -69 -75
-3 -34 -9 -45 -22 -45 -13 0 -19 11 -22 45 -7 59 -22 75 -69 75 -50 0 -69 -21
-69 -76 0 -40 -2 -44 -25 -44 -23 0 -25 4 -25 43 0 54 -22 77 -72 77 -44 0
-59 -17 -66 -75 -3 -34 -9 -45 -22 -45 -13 0 -19 11 -22 45 -7 59 -22 75 -69
75 -50 0 -69 -21 -69 -76 0 -40 -2 -44 -25 -44 -23 0 -25 4 -25 43 0 54 -22
77 -73 77 -26 0 -40 -6 -51 -22z m74 -68 c0 -23 -4 -30 -20 -30 -16 0 -20 7
-20 30 0 23 4 30 20 30 16 0 20 -7 20 -30z m190 0 c0 -25 -4 -30 -25 -30 -21
0 -25 5 -25 30 0 25 4 30 25 30 21 0 25 -5 25 -30z m190 0 c0 -25 -4 -30 -25
-30 -21 0 -25 5 -25 30 0 25 4 30 25 30 21 0 25 -5 25 -30z m180 0 c0 -25 -4
-30 -25 -30 -21 0 -25 5 -25 30 0 25 4 30 25 30 21 0 25 -5 25 -30z m190 0 c0
-25 -4 -30 -25 -30 -21 0 -25 5 -25 30 0 25 4 30 25 30 21 0 25 -5 25 -30z
m-750 -250 c0 -23 -4 -30 -20 -30 -14 0 -20 7 -20 23 0 27 7 37 27 37 8 0 13
-12 13 -30z m185 0 c0 -15 -6 -26 -16 -28 -19 -3 -31 21 -22 43 9 25 38 13 38
-15z m189 15 c8 -21 -3 -45 -20 -45 -8 0 -17 7 -20 15 -8 21 2 45 20 45 7 0
16 -7 20 -15z m-631 -90 c3 -21 -1 -29 -25 -41 -16 -8 -33 -12 -38 -9 -19 12
-11 52 13 63 34 17 44 14 50 -13z m27 -128 c0 -10 -11 -22 -26 -27 -37 -14
-41 -13 -47 15 -4 22 1 28 27 39 33 14 46 7 46 -27z m22 -92 c0 -8 1 -20 2
-26 1 -6 -13 -17 -31 -24 -30 -13 -32 -12 -38 12 -3 14 -5 26 -3 28 33 26 67
31 70 10z"/>
<path d="M1045 1560 c-28 -31 -31 -100 -5 -132 46 -59 115 -21 115 63 0 70
-69 114 -110 69z m60 -70 c0 -15 -6 -26 -16 -28 -19 -3 -31 21 -22 43 9 25 38
13 38 -15z"/>
<path d="M1230 1556 c-28 -31 -32 -92 -7 -129 38 -59 117 -16 117 63 0 45 -32
90 -64 90 -12 0 -33 -11 -46 -24z m64 -51 c8 -21 -3 -45 -20 -45 -18 0 -28 24
-20 45 3 8 12 15 20 15 7 0 16 -7 20 -15z"/>
</g>
</svg>
